<?xml version="1.0" encoding="UTF-8"?>
<!DOCTYPE svg PUBLIC "-//W3C//DTD SVG 1.1//EN" "http://www.w3.org/Graphics/SVG/1.1/DTD/svg11.dtd">
<!-- Creator: CorelDRAW -->
<svg xmlns="http://www.w3.org/2000/svg" xml:space="preserve" width="100%" height="100%" version="1.1" style="shape-rendering:geometricPrecision; text-rendering:geometricPrecision; image-rendering:optimizeQuality; fill-rule:evenodd; clip-rule:evenodd"
viewBox="2400 2700 3000 900"
 xmlns:xlink="http://www.w3.org/1999/xlink"
 xmlns:xodm="http://www.corel.com/coreldraw/odm/2003">
 <defs>
  <style type="text/css">
   <![CDATA[
    .str0 {stroke:#FEFEFE;stroke-width:55.56;stroke-miterlimit:2.61313}
    .fil2 {fill:none}
    .fil0 {fill:#FEFEFE;fill-rule:nonzero}
    .fil1 {fill:#537EA6;fill-rule:nonzero}
   ]]>
  </style>
 </defs>
 <g id="Layer_x0020_1">
  <metadata id="CorelCorpID_0Corel-Layer"/>
  <path class="fil0" d="M2792.96 3099.41c0,33.43 -12.14,59.46 -36.42,78.11 -24.28,18.65 -57,27.97 -98.17,27.97 -21.11,0 -40.64,-1.59 -58.59,-4.75 -17.94,-3.17 -32.9,-7.56 -44.86,-13.19l0 -45.39c12.67,5.63 28.41,10.73 47.24,15.31 18.82,4.57 38.26,6.86 58.32,6.86 28.15,0 49.35,-5.45 63.59,-16.36 14.25,-10.91 21.38,-25.69 21.38,-44.33 0,-12.31 -2.64,-22.69 -7.92,-31.14 -5.28,-8.44 -14.34,-16.28 -27.18,-23.49 -12.84,-7.21 -30.7,-14.87 -53.57,-22.96 -32.02,-11.61 -56.2,-25.86 -72.57,-42.75 -16.36,-16.89 -24.54,-39.93 -24.54,-69.14 0,-20.06 5.1,-37.21 15.31,-51.46 10.2,-14.25 24.37,-25.24 42.48,-32.99 18.12,-7.74 38.97,-11.61 62.54,-11.61 20.76,0 39.76,1.94 57,5.81 17.24,3.87 32.9,8.97 46.97,15.3l-14.78 40.64c-13.02,-5.63 -27.18,-10.38 -42.48,-14.25 -15.31,-3.87 -31.23,-5.8 -47.76,-5.8 -23.57,0 -41.34,5.01 -53.31,15.04 -11.96,10.03 -17.94,23.31 -17.94,39.85 0,12.67 2.64,23.22 7.92,31.67 5.28,8.44 13.9,16.01 25.86,22.69 11.96,6.69 28.15,13.9 48.56,21.64 22.17,8.09 40.9,16.8 56.21,26.13 15.3,9.32 26.92,20.5 34.83,33.51 7.92,13.02 11.88,29.38 11.88,49.08zm286.58 100.81l-210.58 0 0 -376.83 210.58 0 0 41.69 -163.08 0 0 117.69 153.58 0 0 41.17 -153.58 0 0 134.58 163.08 0 0 41.69zm202.14 0l-47.5 0 0 -335.14 -117.69 0 0 -41.69 282.36 0 0 41.69 -117.17 0 0 335.14zm273.92 -376.83c49.26,0 85.15,9.67 107.67,29.03 22.52,19.35 33.78,46.62 33.78,81.8 0,20.76 -4.66,40.2 -13.98,58.32 -9.32,18.12 -24.98,32.81 -46.97,44.07 -21.99,11.26 -51.81,16.89 -89.46,16.89l-43.28 0 0 146.72 -47.5 0 0 -376.83 99.75 0zm-4.22 40.64l-48.03 0 0 148.83 38 0c35.89,0 62.63,-5.8 80.22,-17.41 17.59,-11.61 26.39,-31.31 26.39,-59.11 0,-24.28 -7.74,-42.4 -23.22,-54.36 -15.48,-11.96 -39.94,-17.94 -73.36,-17.94zm552.58 147.25c0,39.06 -6.6,73.1 -19.79,102.13 -13.2,29.03 -32.64,51.63 -58.32,67.82 -25.69,16.19 -57.53,24.28 -95.52,24.28 -39.06,0 -71.52,-8.09 -97.38,-24.28 -25.86,-16.19 -45.12,-38.88 -57.79,-68.08 -12.67,-29.2 -19,-63.33 -19,-102.39 0,-38.7 6.33,-72.48 19,-101.33 12.67,-28.85 31.93,-51.37 57.79,-67.56 25.86,-16.19 58.5,-24.28 97.91,-24.28 37.65,0 69.31,8 95,24.02 25.69,16.01 45.13,38.53 58.32,67.56 13.19,29.03 19.79,63.07 19.79,102.12zm-297.67 0c0,47.5 10.03,84.89 30.08,112.15 20.06,27.27 51.37,40.9 93.94,40.9 42.93,0 74.24,-13.63 93.94,-40.9 19.7,-27.27 29.56,-64.65 29.56,-112.15 0,-47.5 -9.85,-84.71 -29.56,-111.62 -19.7,-26.92 -50.84,-40.38 -93.41,-40.38 -42.57,0 -73.98,13.46 -94.21,40.38 -20.23,26.91 -30.35,64.12 -30.35,111.62zm487.13 188.94l-136.17 0 0 -27.44 44.33 -10.03 0 -301.36 -44.33 -10.56 0 -27.44 136.17 0 0 27.44 -44.33 10.56 0 301.36 44.33 10.03 0 27.44zm371.56 0l-55.41 0 -201.61 -312.97 -2.11 0c0.7,12.31 1.59,27.62 2.64,45.92 1.06,18.3 1.58,37.12 1.58,56.47l0 210.58 -43.81 0 0 -376.83 54.89 0 201.08 311.91 2.11 0c-0.35,-5.63 -0.79,-14.07 -1.32,-25.33 -0.53,-11.26 -1.06,-23.57 -1.58,-36.94 -0.53,-13.37 -0.79,-25.69 -0.79,-36.94l0 -212.69 44.33 0 0 376.83zm221.67 0l-47.5 0 0 -335.14 -117.69 0 0 -41.69 282.36 0 0 41.69 -117.17 0 0 335.14z"/>
  <path class="fil1" d="M2709.68 3470.35l-28.67 -73.67 -94.33 0 -28.33 73.67 -30.33 0 93 -239 27 0 92.67 239 -31 0zm-64.33 -172.33c-0.67,-1.78 -1.78,-5 -3.33,-9.67 -1.56,-4.67 -3.06,-9.5 -4.5,-14.5 -1.44,-5 -2.61,-8.83 -3.5,-11.5 -1.56,6.89 -3.33,13.61 -5.33,20.17 -2,6.56 -3.67,11.72 -5,15.5l-27 72 75.33 0 -26.67 -72zm444.33 51c0,40.22 -10.94,70.5 -32.83,90.83 -21.89,20.33 -52.39,30.5 -91.5,30.5l-66.33 0 0 -238 73.33 0c24,0 44.78,4.44 62.33,13.33 17.56,8.89 31.11,21.94 40.67,39.17 9.56,17.22 14.33,38.61 14.33,64.17zm-31.67 1c0,-31.78 -7.83,-55.06 -23.5,-69.83 -15.67,-14.78 -37.83,-22.17 -66.5,-22.17l-39 0 0 186.67 32.33 0c64.44,0 96.67,-31.56 96.67,-94.67zm602.66 120.33l-86 0 0 -17.33 28 -6.33 0 -190.33 -28 -6.67 0 -17.33 86 0 0 17.33 -28 6.67 0 190.33 28 6.33 0 17.33zm306.67 -63.67c0,21.11 -7.67,37.56 -23,49.33 -15.33,11.78 -36,17.67 -62,17.67 -13.33,0 -25.67,-1 -37,-3 -11.33,-2 -20.78,-4.78 -28.33,-8.33l0 -28.67c8,3.56 17.94,6.78 29.83,9.67 11.89,2.89 24.17,4.33 36.83,4.33 17.78,0 31.17,-3.44 40.17,-10.33 9,-6.89 13.5,-16.22 13.5,-28 0,-7.78 -1.67,-14.33 -5,-19.67 -3.33,-5.33 -9.06,-10.28 -17.17,-14.83 -8.11,-4.56 -19.39,-9.39 -33.83,-14.5 -20.22,-7.33 -35.5,-16.33 -45.83,-27 -10.33,-10.67 -15.5,-25.22 -15.5,-43.67 0,-12.67 3.22,-23.5 9.67,-32.5 6.44,-9 15.39,-15.94 26.83,-20.83 11.44,-4.89 24.61,-7.33 39.5,-7.33 13.11,0 25.11,1.22 36,3.67 10.89,2.44 20.78,5.67 29.67,9.67l-9.33 25.67c-8.22,-3.56 -17.17,-6.56 -26.83,-9 -9.67,-2.44 -19.72,-3.67 -30.17,-3.67 -14.89,0 -26.11,3.17 -33.67,9.5 -7.56,6.33 -11.33,14.72 -11.33,25.17 0,8 1.67,14.67 5,20 3.33,5.33 8.78,10.11 16.33,14.33 7.56,4.22 17.78,8.78 30.67,13.67 14,5.11 25.83,10.61 35.5,16.5 9.67,5.89 17,12.94 22,21.17 5,8.22 7.5,18.56 7.5,31zm381.33 -55.67c0,24.67 -4.17,46.17 -12.5,64.5 -8.33,18.33 -20.61,32.61 -36.83,42.83 -16.22,10.22 -36.33,15.33 -60.33,15.33 -24.67,0 -45.17,-5.11 -61.5,-15.33 -16.33,-10.22 -28.5,-24.56 -36.5,-43 -8,-18.44 -12,-40 -12,-64.67 0,-24.44 4,-45.78 12,-64 8,-18.22 20.17,-32.44 36.5,-42.67 16.33,-10.22 36.94,-15.33 61.83,-15.33 23.78,0 43.78,5.06 60,15.17 16.22,10.11 28.5,24.33 36.83,42.67 8.33,18.33 12.5,39.83 12.5,64.5zm-188 0c0,30 6.33,53.61 19,70.83 12.67,17.22 32.44,25.83 59.33,25.83 27.11,0 46.89,-8.61 59.33,-25.83 12.44,-17.22 18.67,-40.83 18.67,-70.83 0,-30 -6.22,-53.5 -18.67,-70.5 -12.44,-17 -32.11,-25.5 -59,-25.5 -26.89,0 -46.72,8.5 -59.5,25.5 -12.78,17 -19.17,40.5 -19.17,70.5zm432 -118.67c29.56,0 51.39,5.61 65.5,16.83 14.11,11.22 21.17,28.17 21.17,50.83 0,12.67 -2.33,23.22 -7,31.67 -4.67,8.44 -10.61,15.17 -17.83,20.17 -7.22,5 -14.83,8.94 -22.83,11.83l65.33 106.67 -35 0 -57.67 -98.33 -47.33 0 0 98.33 -30 0 0 -238 65.67 0zm-1.67 26l-34 0 0 88.33 35.67 0c19.33,0 33.44,-3.83 42.33,-11.5 8.89,-7.67 13.33,-18.94 13.33,-33.83 0,-15.56 -4.67,-26.61 -14,-33.17 -9.33,-6.56 -23.78,-9.83 -43.33,-9.83zm404 148.33c0,21.11 -7.67,37.56 -23,49.33 -15.33,11.78 -36,17.67 -62,17.67 -13.33,0 -25.67,-1 -37,-3 -11.33,-2 -20.78,-4.78 -28.33,-8.33l0 -28.67c8,3.56 17.94,6.78 29.83,9.67 11.89,2.89 24.17,4.33 36.83,4.33 17.78,0 31.17,-3.44 40.17,-10.33 9,-6.89 13.5,-16.22 13.5,-28 0,-7.78 -1.67,-14.33 -5,-19.67 -3.33,-5.33 -9.06,-10.28 -17.17,-14.83 -8.11,-4.56 -19.39,-9.39 -33.83,-14.5 -20.22,-7.33 -35.5,-16.33 -45.83,-27 -10.33,-10.67 -15.5,-25.22 -15.5,-43.67 0,-12.67 3.22,-23.5 9.67,-32.5 6.44,-9 15.39,-15.94 26.83,-20.83 11.44,-4.89 24.61,-7.33 39.5,-7.33 13.11,0 25.11,1.22 36,3.67 10.89,2.44 20.78,5.67 29.67,9.67l-9.33 25.67c-8.22,-3.56 -17.17,-6.56 -26.83,-9 -9.67,-2.44 -19.72,-3.67 -30.17,-3.67 -14.89,0 -26.11,3.17 -33.67,9.5 -7.56,6.33 -11.33,14.72 -11.33,25.17 0,8 1.67,14.67 5,20 3.33,5.33 8.78,10.11 16.33,14.33 7.56,4.22 17.78,8.78 30.67,13.67 14,5.11 25.83,10.61 35.5,16.5 9.67,5.89 17,12.94 22,21.17 5,8.22 7.5,18.56 7.5,31zm-1579.32 -134.33l-85 238 -30 0 -85 -238 31.33 0 53.67 152.67c3.56,9.78 6.56,18.94 9,27.5 2.44,8.56 4.44,16.72 6,24.5 1.56,-7.78 3.56,-16 6,-24.67 2.44,-8.67 5.44,-18 9,-28l53.33 -152 31.67 0z"/>
  <line class="fil2 str0" x1="2912.51" y1="3530.35" x2="3648.6" y2= "3530.35" />
  <path class="fil1" d="M3433.68 3221.22l-100.23 280.64 -35.37 0 -100.23 -280.64 36.95 0 63.28 180.02c4.19,11.53 7.73,22.34 10.61,32.43 2.88,10.09 5.24,19.72 7.07,28.89 1.83,-9.17 4.19,-18.87 7.07,-29.08 2.88,-10.22 6.42,-21.23 10.61,-33.02l62.89 -179.23 37.34 0z"/>
 </g>
</svg>
